<?xml version="1.0" encoding="UTF-8"?>
<svg id="B-N-B_Logo_Black_copy" data-name="B-N-B Logo Black copy" xmlns="http://www.w3.org/2000/svg" viewBox="0 0 815 280">
  <defs>
    <style>
      .cls-1, .cls-2 {
        fill: #843127;
      }

      .cls-2 {
        stroke: #fff;
        stroke-miterlimit: 10;
        stroke-width: 4px;
      }
    </style>
  </defs>
  <rect class="cls-1" x="-1.95" y="-1.37" width="818.9" height="282.74"/>
  <g id="Text_copy_5" data-name="Text copy 5">
    <path class="cls-2" d="M802.47,132.24c-1.38-4.47-4.68-8.48-8.23-9.97-1.94-.82-3.92-1.24-5.88-1.24-7.3,0-13.07,5.58-18.15,10.51-3.63,3.51-7.05,6.83-9.84,6.83-.52,0-1.03-.12-1.53-.36-1.19-.57-2.29-2.55-3.01-5.41-1.69-6.66-.89-15.47.95-18.02,1.98-2.75,4.06-5.37,6.08-7.9,3.08-3.88,6.27-7.88,9.11-12.38,12.92-20.42,20.44-40.04,22.99-59.97.9-7.06.67-13.29-.71-18.51-1.73-6.58-6.86-10.66-13.39-10.66-1.89,0-3.81.35-5.72,1.05-17.32,6.34-25.06,33.44-29.68,49.63l-.31,1.08c-6.27,21.93-10.37,43.6-12.9,68.14-4.85,7.84-16.41,18.41-26.13,18.41-2.33,0-4.46-.61-6.36-1.81-2.34-1.48-4.12-4.65-4.69-8.18,9.89-2.48,19.11-7.71,26.12-14.83,8.16-8.29,12.53-18.26,12.64-28.84.05-5.08-1.59-9.46-4.76-12.66-3.22-3.25-7.68-4.97-12.91-4.97-.3,0-.59,0-.89.02-10.56.4-20.24,5.37-28,14.37-11.26,13.07-17.55,33.74-15.76,51.64-2.15,3.72-8.07,8.53-11.55,8.53-.45,0-.82-.08-1.13-.26-3.38-1.93-2.67-13.94-.68-21.7,2.94-11.46,8.08-22.53,16.65-35.88l.58-.91-.44-.99c-1.31-2.93-4.19-5.85-7.34-7.44l-1.19-.6-1.01.86c-6.4,5.47-12.57,9.01-18.34,10.51-.11.03-.52.08-1.02.09.03-.14.06-.28.09-.43,1.04-4.92,2.79-13.17-5.06-17.75-1.85-1.08-4.01-1.65-6.24-1.65-4.02,0-7.88,1.78-10.61,4.88-4.4,5.01-6.18,10.93-5.29,17.61.59,4.45,3.44,8.7,8.27,12.35-1.3,5.05-5.37,16.37-10.5,26.98-9.42,19.45-14.75,20.96-16.17,20.96-.29,0-.56-.05-.82-.15-.42-.42-1.05-1.89-1.03-2.45.51-17.14,6-34.15,16.3-50.57.95-1.52,3.85-6.13.86-10.45-1.27-1.83-4.31-4.41-7.13-4.41-.41,0-.81.06-1.19.17l-.46.13-.35.33c-4.59,4.31-10.16,8.7-17.24,9.62,1.88-6.98,2.89-14.38-5.83-19.11-1.89-1.02-4.06-1.56-6.29-1.56-4.49,0-8.67,2.18-11.18,5.83-6.4,9.29-4.62,21.69,3.92,28.87-3.41,11.94-11.6,39.59-22.71,47.93-.16.06-.63.18-1.26.18-.21,0-.37-.01-.5-.03-1.06-2.9.14-11.72,3.09-22.45l11.25-40.92.46-1.67-1.59-.69c-2.07-.9-4.55-1.37-7.17-1.37-5.54,0-12.01,2.15-15.4,6.88-2.99-2.52-6.67-3.83-10.79-3.83-9.77,0-20.68,7.39-26.42,14.69-11.97,15.25-19.99,43.08-12.68,63.26,2.76,7.63,9.22,12.38,16.85,12.38,2.43,0,4.9-.48,7.33-1.42,6.12-2.36,10.68-6.86,14.95-11.91,2.68,5.54,7.51,8.74,13.43,8.74,1.75,0,3.57-.28,5.42-.84,12.91-3.92,23.34-17.92,30.98-41.62l7.3-22.64,2.78.2c-.26.7-.53,1.42-.8,2.14-5.13,13.72-11.52,30.79-8.76,44.11,1.66,8,8.21,13.38,16.3,13.38,1.32,0,2.67-.14,4.01-.43,7.58-1.61,14.44-6.2,19.84-13.28,7.19-9.42,13.15-20.83,17.71-33.91l6.23-17.86,4.46-.63c-7.99,15.07-17.19,46.21-4.34,56.22,3.07,2.39,6.63,3.61,10.59,3.61,9.87,0,19.94-7.52,26-15.25,5.41,7.39,13.24,11.41,22.31,11.41,2.22,0,4.5-.25,6.78-.74,13.93-3,23.18-12.56,27.63-17.15.25-.26.51-.53.76-.78,2.18,4.41,6.67,13.17,16.78,13.17,1.65,0,3.39-.24,5.17-.72,7.72-2.07,14.45-6.4,19.99-12.88.29-.34.63-.75,1-1.2,2.04-2.46,6.81-8.22,9.67-8.22.39,0,.71.13,1.04.41.54.48,1.48,2.57,1.39,3.56-2.11,22.7-30.29,29.93-46.91,32.22-22.35,3.08-43.5,4.46-68.84,5.96l-87.74,5.17-82.73,5.17-159.13,4.32h-.09c-.11,0-.22,0-.32.02l-81.54,7.18c-31.23,2.75-57.77,6.5-83.53,11.8-20.83,4.29-40.49,11.25-60.11,21.3-6.91,3.54-15.41,8.43-19.9,14.87-1.15,1.65-2.91,4.7-1.77,6.52,1.09,1.73,3.55,2.35,5.48,2.35h.2c.45-.01.91-.02,1.37-.02,22.9,0,50.05,12.9,60.66,18.44l1.18.62,1.03-.86c21.82-18.24,54.06-31.24,98.56-39.73,28.89-5.51,58.63-9.27,96.43-12.18,22.6-1.2,52.81-2.68,77.08-3.86,22.07-1.08,39.5-1.93,45.59-2.29l185.53-11.12c21.6-1.29,42.91-3.56,67.08-7.11,16.33-2.4,31.77-8.06,43.48-15.94,7.89-5.3,14.82-13.2,19.02-21.67,4.82-9.72,5.93-19.52,3.21-28.36ZM780.65,23.12c5.7,15.23-12.56,56.44-23.06,68.62.93-11.09,12.77-65.22,23.06-68.62ZM509.76,164.11c-9.24-2.99-4.55-38.47,10.76-51.67,1.26-1.09,4.89-2.05,6.35-1.55,10.13,3.52-2.16,58.04-17.11,53.21ZM703.24,95.16c2.55-3.62,9.3-8.84,13.24-5.86.87.66,1.66,3.12,1.53,4.39-1.39,13.13-12.81,22.61-24.55,27.85.51-9.95,4.18-18.45,9.79-26.38Z"/>
    <path class="cls-2" d="M491.97,78.19c1.99-13.5-2.15-25.94-11.63-35.03-11.27-10.79-25.37-16.27-41.91-16.27-9.7,0-19.96,1.91-30.51,5.67-16.02,5.71-28.5,15.4-37.1,28.82-8.11,12.65-11.01,28.38-7.78,42.07,2.65,11.2,9.19,20.18,18.91,25.96l1.15.68,1.07-.8c6.45-4.81,11.09-9.5,14.58-14.78l1.12-1.69-1.7-1.1c-9.79-6.31-14.13-15.45-12.21-25.74,4.55-24.43,29.04-37.21,50.89-37.21,4.21,0,8.28.48,12.1,1.42,9.18,2.25,15.84,8.24,17.82,16.02,3.6,14.16-3.05,29.51-16.18,37.33-2.72,1.62-5.43,1.69-8.85,1.77-3.11.07-6.85.16-11.48,1.48,2.34-11.8,4.72-21.87,8.19-31.67,2.48-7.02,6.15-9.79,9.09-12.02,2.05-1.55,3.82-2.89,4.33-5.18.22-1-.02-2-.68-2.83-1.66-2.07-5.4-2.38-7.48-2.38-8.82,0-21.43,4.92-27.93,18.76-2.54,5.4-4.53,11.33-6.45,19.21l-8.44,35.6-.94,3.98c-2.64,11.15-5.14,21.74-8.44,32.83-5.52-4.7-11.67-7.16-17.95-7.16-4.95,0-9.77,1.51-14.32,4.49-8.28,5.42-13.05,15.24-12.76,26.27.23,8.96,3.99,16.68,10.58,21.74,4.96,3.81,10.77,5.83,16.8,5.83,9.77,0,19.7-5.2,26.87-13.99,7.89,4.16,16.61,6.35,25.31,6.35,18.17,0,35.19-9.35,45.52-25.01,7.14-10.82,11.22-23.79,11.18-35.57-.04-12.96-4.87-23.72-13.99-31.28,12.89-9.15,21.11-22.04,23.24-36.55ZM443,177.15c-5.2,3.78-11.25,5.77-17.48,5.77-5.14,0-10.08-1.39-14.38-4.03l14.14-51.56c2.76,1.08,5.65,1.61,8.79,1.61,4.48,0,8.81-1.05,13.38-2.16.12-.01.24-.02.36-.02,3.07,0,6.12,4.95,8.14,8.23l.05.09c4.81,16.06-.4,32.94-13,42.08ZM379.23,189.04c-1.7,1.18-3.6,1.81-5.49,1.81-1.4,0-2.73-.35-3.95-1.03-1.91-1.08-3.17-3.79-3.14-5.65.03-2.22,1.43-5.16,3.64-6.03,1.21-.48,2.6-.73,4.03-.73,3.73,0,6.86,1.62,8.37,4.32,1.61,2.88-2.04,6.33-3.45,7.31Z"/>
    <path class="cls-2" d="M351.33,143.87c-5.44-.87-9.21-1.86-12.42-4.24.16-.22.32-.45.49-.69,5.13-7.21,10.05-14.68,8.91-19.93-.37-1.69-1.36-3.05-2.87-3.92-1.67-.97-4.35-1.62-6.67-1.62-1.11,0-2.05.15-2.8.46l-.84.34-.3.86c-1.89,5.42-3.56,9.38-6.47,13.57-2.78-3.05-5.21-6.34-7.64-10.32.56-.46,1.12-.9,1.68-1.35,4.57-3.66,8.89-7.12,12.16-12.13,4.89-7.48,5.66-18.94-2.53-25.44-2.93-2.33-6.43-3.51-10.4-3.51-3.01,0-6.24.68-9.62,2.02-4.83,1.92-8.59,5.84-10.88,11.32-3.06,7.33-3.12,16.9-.22,24.81-10.69,8.07-15.24,20.2-11.89,31.99,2.38,8.36,9.85,13.77,19.05,13.77.73,0,1.48-.04,2.22-.11,5.95-.57,11.26-3.47,16.4-6.28.5-.27,1-.55,1.5-.82.84.41,1.72.9,2.65,1.41,3,1.66,6.4,3.55,9.87,3.55.39,0,.77-.02,1.15-.07,5.84-.73,9.78-6.15,11.09-11.2l.55-2.13-2.17-.35ZM317.22,92.43c.48-.66,2.53-1.58,3.88-1.58.05,0,.09,0,.12,0,.5.39,1.34,2.3,1.16,3.61-.51,3.85-2.68,7.05-6.76,9.93-.99-3.67-1.19-8.15,1.59-11.96ZM316.91,141.52c-1.39,1.4-3.93,2.43-6.3,2.43-1.36,0-3.23-.33-4.38-1.89-3.02-4.11-.32-9.42,1.68-12.34,2.78,3.99,5.54,7.61,9,11.81Z"/>
    <path class="cls-2" d="M296.95,75.74l-.45-2.91-2.54,1.49c-12.04,7.04-17.52,7.91-32.2,8.59l5.56-23.11,1.02-4.25-3.88,2.01c-5.34,2.76-9.63,4.47-14.52,4.47-.96,0-1.92-.06-2.95-.19l-1.75-.22-.43,1.71-5.22,20.69-23.61.74c-13.25.41-34.46,6.54-34.97,21.22l-.09,2.63,2.55-.61,12.35-2.95c10.63-2.54,21.49-2.57,32.98-2.59,1.85,0,3.75,0,5.65-.03-4.99,18.74-9.34,37.12-13.66,57.61-1.87,8.86-10.56,18.01-13.12,18.27-1.91-2.68-.73-15.68,1.04-22.39l10.95-41.4.44-1.67-1.59-.68c-2.04-.87-4.64-1.35-7.33-1.35-4.94,0-11.03,1.67-14.57,6.17-3.16-2.4-6.87-3.62-11.04-3.62-10.55,0-21.44,7.94-27.1,15.31-12.63,16.48-17.91,38.79-14.12,59.67,1.75,9.65,9.16,15.89,18.88,15.89,2.03,0,4.09-.29,6.13-.85,7.05-1.96,11.56-6.68,16.04-11.9,4.46,5.91,9.93,7.23,13.94,7.23,3.17,0,6.43-.82,9.7-2.44,5.84-2.89,9.79-7.78,13.97-12.94.09-.11.18-.22.27-.34,3.02,6.15,8.44,9.61,15.29,9.61.91,0,1.86-.06,2.81-.19,20.04-2.62,33.03-28.44,37.55-43.29l.23-.77-.36-.71c-1.59-3.17-5.06-5.64-7.6-6.6l-1.71-.64-.79,1.65c-.51,1.06-1,2.1-1.49,3.13-3.16,6.64-5.88,12.37-9.76,18.38-2.03,3.15-6.92,7.56-10.26,7.56-.55,0-1.01-.13-1.41-.38-3.09-1.96-2.15-15.69-.46-22.38l11.93-47.46,15.51-1.7c6.76-.74,15.8-3.89,20.88-10.51,2.91-3.79,4.06-8.27,3.34-12.96ZM188.78,147.88c-1.6,9.67-4.78,19.74-5.14,20.85-1.76,5.52-7.35,13.86-11.74,13.86-.39,0-.76-.07-1.13-.2-.89-.33-2.69-2.43-2.96-4-2.68-15.86,3.62-33.58,10.9-42.2,2.68-3.17,5.43-4.98,7.56-4.98.5,0,.95.09,1.39.29,1.72.75,2.92,5.44,1.1,16.39Z"/>
    <path class="cls-2" d="M152.43,95.92c1.46-16.23-5.1-30.49-17.99-39.14-10.5-7.05-23.39-10.77-37.28-10.77-19.07,0-38.89,7.13-53.01,19.08-14.29,12.08-22.67,27.82-23.58,44.32-.93,16.76,6.33,30.74,19.92,38.34l1.04.58,1-.63c6.09-3.82,11.05-8.46,14.76-13.78l.98-1.41-1.25-1.18c-.97-.92-1.94-1.79-2.87-2.63-3.68-3.31-6.86-6.18-8.28-10.28-3.65-10.51-.83-22.03,7.74-31.6,10.2-11.4,27.16-18.77,43.2-18.76,11.93,0,21.51,4.11,26.97,11.57,5.3,7.25,5.69,17.73,1.03,28.05-4.14,9.16-11.33,15.71-17.9,16.3-1.63.15-3.2.27-4.76.39-4.03.31-7.88.61-12.16,1.3,2.4-11.74,5.18-21.85,8.45-30.84,2.32-6.37,8.76-12.11,13.58-15.09h.02s.02-.03.02-.03c1.08-.71,1.57-1.83,1.31-3-.55-2.45-4.33-3.78-5.97-4.01-1.6-.23-3.21-.34-4.77-.34-12.76,0-23.06,7.42-27.54,19.86-5.52,15.32-9.42,30.79-13.26,46.61l-10.22,42.1c-5.29-3.7-10.4-7.02-17.02-7.02-.14,0-.27,0-.41,0-7.3.15-14.08,3.3-19.08,8.88-4.75,5.3-7.55,12.3-7.89,19.72-.4,8.75,2.73,16.89,8.6,22.32,4.93,4.57,11.22,6.98,18.19,6.98,10.41,0,20.63-5.5,27.11-14.47,7.35,4.53,15.87,6.91,24.75,6.91,20.47,0,40.65-12.32,50.21-30.66,4.82-9.23,7.24-21.03,6.5-31.55-.6-8.46-3.49-19.83-13.51-27.66,13.65-8.58,21.91-22.12,23.38-38.43ZM106.93,192.65c-5.97,5.77-13.51,8.95-21.22,8.95-5.24,0-10.34-1.5-14.83-4.34l8.87-31.45,5.27-19.69c2.99,1.27,6.14,1.87,9.72,1.87,3.29,0,6.52-.49,9.94-1.02,1.11-.17,2.24-.34,3.39-.5.1-.01.2-.02.3-.02,2.78,0,6.87,4.86,8.01,8.62,4.11,13.58.49,27.98-9.44,37.58ZM34.46,208.6c-1.3,0-2.43-.25-3.28-.73-2.57-1.44-4.22-4.05-4.29-6.81-.05-2.18,1.59-5.08,4.34-5.94,1.02-.32,2.11-.48,3.26-.48,3.2,0,7.3,1.39,9.2,5.29.87,1.8-1.72,5.32-3.84,7.07-1.17.96-3.33,1.6-5.39,1.6Z"/>
  </g>
</svg>