<?xml version="1.0" encoding="UTF-8"?>
<svg id="B-N-B_Logo_Black" data-name="B-N-B Logo Black" xmlns="http://www.w3.org/2000/svg" viewBox="0 0 2560 1440">
  <defs>
    <style>
      .cls-1 {
        fill: #843127;
        stroke: #fff;
        stroke-miterlimit: 10;
        stroke-width: 9.99px;
      }
    </style>
  </defs>
  <rect width="2560" height="1440"/>
  <g id="Text_copy_2" data-name="Text copy 2">
    <g>
      <path class="cls-1" d="M2270.83,699.99c-3.43-11.16-11.68-21.16-20.53-24.89-4.85-2.05-9.8-3.09-14.69-3.09-18.23,0-32.62,13.94-45.31,26.23-9.05,8.77-17.61,17.05-24.55,17.05-1.31,0-2.56-.3-3.83-.91-2.97-1.43-5.71-6.36-7.52-13.51-4.21-16.61-2.22-38.62,2.36-44.98,4.94-6.85,10.14-13.4,15.17-19.73,7.69-9.68,15.64-19.68,22.74-30.9,32.25-50.98,51.02-99.95,57.39-149.71,2.25-17.62,1.66-33.17-1.76-46.21-4.31-16.42-17.12-26.62-33.43-26.62-4.72,0-9.52.88-14.28,2.62-43.25,15.83-62.55,83.47-74.08,123.88l-.77,2.69c-15.65,54.75-25.89,108.83-32.2,170.1-12.1,19.57-40.96,45.96-65.24,45.96-5.8,0-11.14-1.52-15.87-4.52-5.84-3.7-10.28-11.6-11.71-20.41,24.69-6.2,47.7-19.24,65.2-37.03,20.36-20.7,31.27-45.59,31.54-71.99.13-12.68-3.98-23.61-11.89-31.6-8.03-8.12-19.17-12.41-32.22-12.41-.74,0-1.48.01-2.23.04-26.35.99-50.52,13.4-69.89,35.88-28.12,32.63-43.82,84.24-39.34,128.91-5.36,9.28-20.14,21.28-28.82,21.28-1.13,0-2.05-.21-2.81-.64-8.43-4.81-6.67-34.79-1.7-54.17,7.35-28.61,20.16-56.24,41.56-89.57l1.46-2.27-1.1-2.46c-3.27-7.32-10.46-14.61-18.33-18.57l-2.96-1.49-2.52,2.16c-15.98,13.66-31.38,22.49-45.79,26.24-.29.07-1.3.19-2.56.23.07-.35.15-.71.23-1.07,2.61-12.29,6.97-32.86-12.63-44.32-4.62-2.7-10.01-4.13-15.59-4.13-10.03,0-19.68,4.44-26.48,12.18-10.98,12.5-15.43,27.29-13.22,43.96,1.47,11.12,8.59,21.73,20.64,30.84-3.25,12.59-13.39,40.86-26.21,67.34-23.5,48.55-36.83,52.32-40.36,52.32-.71,0-1.39-.13-2.05-.38-1.05-1.04-2.62-4.72-2.58-6.12,1.28-42.79,14.98-85.26,40.7-126.23,2.38-3.78,9.6-15.3,2.14-26.09-3.16-4.57-10.77-11-17.79-11-1.03,0-2.03.14-2.97.41l-1.14.34-.87.82c-11.45,10.75-25.36,21.72-43.05,24.01,4.69-17.42,7.22-35.91-14.56-47.69-4.71-2.55-10.13-3.89-15.69-3.89-11.2,0-21.64,5.44-27.92,14.54-15.97,23.18-11.54,54.16,9.79,72.06-8.51,29.8-28.95,98.83-56.69,119.66-.39.16-1.57.44-3.15.44-.52,0-.93-.03-1.25-.07-2.64-7.23.36-29.26,7.73-56.05l28.09-102.15,1.15-4.18-3.98-1.72c-5.17-2.24-11.36-3.43-17.91-3.43-13.83,0-29.97,5.37-38.43,17.18-7.46-6.28-16.65-9.56-26.94-9.56-24.39,0-51.63,18.44-65.94,36.67-29.89,38.06-49.9,107.53-31.66,157.9,6.9,19.06,23.02,30.9,42.06,30.9,6.07,0,12.23-1.19,18.3-3.54,15.28-5.9,26.66-17.12,37.32-29.74,6.68,13.82,18.74,21.83,33.52,21.83,4.37,0,8.92-.71,13.52-2.11,32.24-9.78,58.26-44.73,77.34-103.88l18.23-56.52,6.93.51c-.65,1.75-1.32,3.54-2,5.34-12.81,34.24-28.76,76.86-21.86,110.11,4.15,19.98,20.5,33.41,40.7,33.41,3.3,0,6.67-.36,10-1.07,18.91-4.02,36.04-15.48,49.53-33.16,17.95-23.52,32.83-52.01,44.21-84.65l15.55-44.58,11.13-1.58c-19.95,37.61-42.9,115.34-10.83,140.33,7.66,5.97,16.56,9,26.44,9,24.64,0,49.77-18.77,64.91-38.07,13.52,18.44,33.04,28.5,55.68,28.5,5.54,0,11.23-.62,16.93-1.85,34.79-7.5,57.87-31.35,68.96-42.82.62-.64,1.27-1.31,1.89-1.95,5.45,11.01,16.66,32.88,41.89,32.88,4.11,0,8.45-.61,12.91-1.8,19.27-5.16,36.06-15.98,49.9-32.14.73-.86,1.57-1.87,2.51-3,5.09-6.14,17-20.51,24.15-20.51.98,0,1.78.32,2.59,1.04,1.35,1.19,3.7,6.42,3.47,8.89-5.27,56.67-75.62,74.71-117.09,80.42-55.78,7.68-108.6,11.15-171.85,14.87l-219.02,12.91-206.52,12.9-397.24,10.78h-.22c-.28,0-.54.02-.8.05l-203.56,17.93c-77.96,6.87-144.21,16.23-208.51,29.46-51.99,10.7-101.07,28.09-150.05,53.18-17.25,8.83-38.48,21.04-49.68,37.13-2.87,4.13-7.27,11.73-4.42,16.27,2.72,4.33,8.85,5.87,13.68,5.87h.5c1.13-.03,2.28-.05,3.42-.05,57.17,0,124.93,32.19,151.41,46.03l2.96,1.54,2.56-2.14c54.47-45.54,134.95-77.98,246.04-99.18,72.12-13.76,146.36-23.14,240.73-30.4,56.41-3,131.83-6.68,192.43-9.63,55.09-2.69,98.61-4.81,113.8-5.72l463.14-27.77c53.92-3.23,107.13-8.88,167.45-17.76,40.76-6,79.31-20.13,108.55-39.78,19.69-13.23,37-32.95,47.49-54.1,12.03-24.25,14.8-48.74,8.01-70.8ZM2216.35,427.59c14.23,38.03-31.35,140.89-57.58,171.29,2.32-27.69,31.87-162.81,57.58-171.29ZM1540.14,779.54c-23.06-7.45-11.35-96.03,26.86-128.98,3.15-2.72,12.22-5.12,15.85-3.86,25.29,8.78-5.39,144.9-42.71,132.84ZM2023.12,607.44c6.37-9.03,23.21-22.07,33.05-14.64,2.17,1.64,4.15,7.79,3.81,10.97-3.47,32.78-31.98,56.44-61.29,69.52,1.28-24.83,10.45-46.05,24.43-65.85Z"/>
      <path class="cls-1" d="M1495.74,565.07c4.96-33.7-5.36-64.76-29.04-87.44-28.13-26.94-63.33-40.6-104.62-40.6-24.21,0-49.83,4.76-76.17,14.14-39.99,14.25-71.14,38.45-92.6,71.93-20.24,31.58-27.49,70.84-19.41,105.03,6.61,27.96,22.93,50.37,47.2,64.81l2.86,1.7,2.67-1.99c16.11-12,27.67-23.72,36.4-36.89l2.79-4.21-4.25-2.74c-24.44-15.76-35.26-38.57-30.48-64.25,11.36-60.99,72.5-92.89,127.03-92.89,10.5,0,20.67,1.19,30.22,3.54,22.91,5.63,39.54,20.57,44.48,39.98,9,35.35-7.61,73.67-40.4,93.18-6.8,4.05-13.55,4.21-22.09,4.41-7.77.19-17.09.41-28.67,3.69,5.85-29.45,11.79-54.59,20.45-79.07,6.2-17.53,15.35-24.44,22.69-29.99,5.12-3.87,9.54-7.21,10.81-12.94.55-2.49-.05-5-1.71-7.06-4.15-5.17-13.48-5.94-18.67-5.94-22.02,0-53.49,12.27-69.73,46.83-6.34,13.49-11.3,28.27-16.11,47.95l-21.08,88.87-2.35,9.93c-6.58,27.84-12.82,54.27-21.08,81.95-13.77-11.73-29.12-17.88-44.8-17.88-12.35,0-24.38,3.77-35.75,11.21-20.66,13.52-32.57,38.03-31.85,65.58.58,22.36,9.96,41.64,26.41,54.28,12.38,9.51,26.88,14.54,41.94,14.54,24.39,0,49.19-12.97,67.08-34.91,19.71,10.37,41.46,15.84,63.18,15.84,45.37,0,87.85-23.34,113.64-62.43,17.83-27.02,28-59.39,27.91-88.8-.1-32.36-12.15-59.21-34.92-78.1,32.18-22.85,52.69-55.01,58.01-91.23ZM1373.48,812.11c-12.99,9.42-28.08,14.41-43.63,14.41-12.83,0-25.17-3.47-35.9-10.06l35.29-128.72c6.89,2.7,14.11,4.03,21.94,4.03,11.18,0,21.98-2.61,33.41-5.4.3-.04.6-.06.89-.06,7.65,0,15.27,12.36,20.32,20.55l.13.22c12,40.08-.99,82.22-32.45,105.04ZM1214.3,841.79c-4.24,2.95-8.98,4.52-13.71,4.52-3.5,0-6.82-.87-9.85-2.57-4.77-2.68-7.91-9.45-7.84-14.09.08-5.55,3.58-12.89,9.08-15.06,3.02-1.19,6.5-1.83,10.05-1.83,9.31,0,17.11,4.03,20.88,10.79,4.01,7.2-5.1,15.8-8.61,18.24Z"/>
      <path class="cls-1" d="M1144.66,729.03c-13.59-2.18-23-4.65-31.01-10.6.39-.55.79-1.12,1.22-1.71,12.81-17.99,25.08-36.66,22.24-49.75-.91-4.22-3.39-7.6-7.15-9.79-4.17-2.41-10.86-4.04-16.65-4.04-2.77,0-5.13.38-6.99,1.14l-2.1.85-.74,2.14c-4.71,13.52-8.9,23.42-16.14,33.87-6.94-7.62-13.01-15.83-19.06-25.76,1.41-1.14,2.8-2.26,4.18-3.36,11.41-9.14,22.18-17.77,30.35-30.28,12.2-18.67,14.13-47.27-6.31-63.51-7.32-5.81-16.05-8.76-25.96-8.76-7.5,0-15.58,1.7-24.01,5.05-12.06,4.8-21.45,14.57-27.16,28.25-7.64,18.3-7.78,42.18-.56,61.94-26.69,20.16-38.05,50.42-29.69,79.85,5.93,20.88,24.59,34.36,47.54,34.36,1.83,0,3.7-.09,5.55-.27,14.85-1.42,28.11-8.66,40.93-15.67,1.25-.68,2.5-1.37,3.75-2.04,2.09,1.02,4.31,2.25,6.62,3.53,7.49,4.15,15.98,8.85,24.64,8.85.97,0,1.93-.06,2.87-.18,14.59-1.83,24.41-15.36,27.68-27.95l1.38-5.31-5.42-.87ZM1059.49,600.61c1.2-1.65,6.31-3.95,9.69-3.95.12,0,.22,0,.3,0,1.25.96,3.34,5.74,2.9,9.01-1.28,9.62-6.68,17.6-16.87,24.79-2.47-9.15-2.97-20.34,3.98-29.86ZM1058.73,723.17c-3.48,3.51-9.82,6.06-15.73,6.06-3.4,0-8.05-.82-10.93-4.73-7.55-10.25-.79-23.51,4.19-30.81,6.93,9.96,13.82,18.99,22.47,29.47Z"/>
      <path class="cls-1" d="M1008.91,558.96l-1.11-7.26-6.34,3.71c-30.06,17.58-43.72,19.74-80.37,21.45l13.88-57.69,2.55-10.61-9.7,5.01c-13.33,6.88-24.05,11.15-36.26,11.15-2.39,0-4.8-.15-7.36-.47l-4.38-.54-1.08,4.27-13.03,51.65-58.94,1.84c-33.07,1.03-86.02,16.32-87.3,52.98l-.23,6.55,6.38-1.52,30.84-7.37c26.54-6.34,53.64-6.41,82.34-6.48,4.62-.01,9.35-.02,14.1-.06-12.45,46.77-23.33,92.66-34.1,143.82-4.66,22.11-26.37,44.97-32.76,45.61-4.76-6.68-1.83-39.15,2.6-55.89l27.34-103.34,1.1-4.17-3.97-1.7c-5.08-2.17-11.58-3.37-18.3-3.37-12.33,0-27.53,4.16-36.37,15.4-7.9-6-17.14-9.03-27.56-9.03-26.34,0-53.53,19.82-67.64,38.23-31.53,41.14-44.71,96.82-35.26,148.96,4.37,24.09,22.86,39.66,47.12,39.66,5.07,0,10.22-.72,15.31-2.13,17.59-4.88,28.86-16.67,40.03-29.72,11.13,14.75,24.8,18.05,34.79,18.05,7.92,0,16.06-2.05,24.21-6.08,14.58-7.22,24.44-19.41,34.87-32.31.23-.28.45-.56.68-.84,7.53,15.36,21.06,23.99,38.16,23.99,2.28,0,4.64-.16,7.01-.47,50.03-6.54,82.46-71,93.73-108.05l.58-1.91-.9-1.78c-3.98-7.91-12.63-14.08-18.98-16.46l-4.28-1.61-1.98,4.12c-1.27,2.65-2.51,5.25-3.72,7.81-7.88,16.57-14.69,30.88-24.37,45.89-5.08,7.88-17.28,18.86-25.62,18.86-1.36,0-2.52-.31-3.53-.96-7.7-4.89-5.35-39.17-1.16-55.88l29.77-118.49,38.72-4.25c16.88-1.85,39.44-9.71,52.11-26.23,7.25-9.45,10.14-20.64,8.34-32.36ZM738.88,739.03c-4,24.14-11.93,49.27-12.82,52.06-4.41,13.77-18.34,34.6-29.31,34.6-.97,0-1.89-.17-2.81-.51-2.23-.82-6.72-6.07-7.38-9.99-6.69-39.6,9.03-83.82,27.21-105.34,6.68-7.9,13.56-12.44,18.88-12.44,1.24,0,2.38.23,3.48.71,4.3,1.86,7.28,13.58,2.76,40.91Z"/>
      <path class="cls-1" d="M648.14,609.34c3.64-40.5-12.73-76.12-44.91-97.71-26.21-17.59-58.39-26.88-93.06-26.88-47.6,0-97.07,17.8-132.33,47.62-35.67,30.17-56.58,69.46-58.87,110.63-2.33,41.84,15.8,76.73,49.74,95.71l2.58,1.45,2.51-1.57c15.2-9.54,27.59-21.12,36.84-34.41l2.45-3.52-3.11-2.95c-2.42-2.3-4.83-4.47-7.17-6.57-9.19-8.27-17.13-15.42-20.68-25.66-9.1-26.24-2.06-54.99,19.31-78.88,25.46-28.46,67.79-46.84,107.83-46.84,29.78,0,53.69,10.26,67.33,28.87,13.24,18.09,14.2,44.26,2.56,70.02-10.33,22.86-28.29,39.21-44.69,40.69-4.06.37-7.99.67-11.87.97-10.06.77-19.66,1.51-30.36,3.24,6-29.31,12.92-54.56,21.08-76.98,5.79-15.91,21.88-30.24,33.9-37.67l.06-.04.06-.04c2.7-1.78,3.92-4.57,3.27-7.48-1.37-6.11-10.8-9.43-14.9-10-4-.57-8.01-.85-11.92-.85-31.86,0-57.56,18.53-68.74,49.57-13.78,38.24-23.52,76.86-33.11,116.36l-25.5,105.09c-13.19-9.23-25.96-17.52-42.48-17.52-.34,0-.68,0-1.02.01-18.23.37-35.14,8.24-47.63,22.17-11.85,13.22-18.85,30.7-19.7,49.23-1.01,21.85,6.82,42.16,21.46,55.72,12.31,11.4,28.01,17.42,45.4,17.42,25.98,0,51.49-13.72,67.68-36.12,18.36,11.3,39.61,17.25,61.78,17.25,51.09,0,101.46-30.76,125.35-76.55,12.02-23.04,18.09-52.49,16.22-78.77-1.5-21.13-8.7-49.5-33.73-69.05,34.06-21.43,54.69-55.21,58.36-95.93ZM534.55,850.81c-14.91,14.41-33.72,22.35-52.97,22.35-13.09,0-25.82-3.73-37.03-10.83l22.14-78.51,13.14-49.16c7.48,3.16,15.33,4.66,24.26,4.66,8.21,0,16.27-1.23,24.81-2.54,2.78-.43,5.6-.86,8.47-1.25.25-.03.5-.05.76-.05,6.94,0,17.14,12.13,19.98,21.52,10.25,33.89,1.23,69.84-23.56,93.81ZM353.66,890.61c-3.24,0-6.07-.63-8.18-1.81-6.43-3.61-10.53-10.12-10.7-16.99-.14-5.45,3.97-12.67,10.83-14.83,2.54-.8,5.28-1.2,8.13-1.2,8,0,18.23,3.47,22.97,13.2,2.18,4.48-4.29,13.28-9.59,17.64-2.91,2.4-8.32,4-13.46,4Z"/>
    </g>
  </g>
</svg>