<?xml version="1.0" encoding="UTF-8"?>
<svg id="Stencil-2" data-name="Stencil" xmlns="http://www.w3.org/2000/svg" xmlns:xlink="http://www.w3.org/1999/xlink" viewBox="0 0 172.17 213.91">
  <defs>
    <style>
      .cls-1 {
        fill: #fff;
        stroke: #000;
        stroke-miterlimit: 10;
      }
    </style>
    <symbol id="Stencil" viewBox="0 0 144.99 185.98">
      <path class="cls-1" d="M134.78,119.12c.05-9.13-2.26-21.92-13.56-31.04l-1.03-.83,1.08-.76c12.64-8.98,20.75-21.72,22.83-35.88,1.58-12.36-1.61-23.46-9.21-32.1C124.96,7.23,107.86.5,89.16.5c-9.88,0-19.47,1.92-27.74,5.54l-.07.03-.07.02c-11.15,3.02-21.85,10.15-30.12,20.07-8.03,9.63-13.3,21.21-14.84,32.62-2.47,18.27,4.57,33.4,19.83,42.68,6.77-4.97,11.7-10,15.43-15.73-10.64-6.51-15.68-16.67-13.49-27.37,5.1-26.08,30.35-37.97,51.65-37.97,4.3,0,8.53.47,12.55,1.4,10.78,2.49,17.8,9.97,19.26,20.52,1.85,13.31-5.62,28.21-17.37,34.67-3.74,1.88-7.13,1.94-10.71,2.01-1.28.02-2.59.05-3.94.16-1.96,7.54-2.91,11.53-5.06,21.21.8.08,1.62.13,2.48.13,4.38,0,8.94-1.04,13.35-2.05l.39-.09.37-.08.33.18c6.61,3.56,10.43,10.36,10.76,19.13.47,12.63-6.32,27.11-15.47,32.97-5.17,3.83-11.59,5.93-18.07,5.93-5.37,0-10.52-1.44-14.89-4.17l-.63-.39.2-.72,14.02-51.14h0c2.12-9.61,2.83-12.3,4.53-18.82l.46-1.74h0s.1-.39.1-.39c.82-3.22,1.52-6.6,2.26-10.19,2.75-13.39,5.6-27.24,15.42-34.08,1.94-1.47,3.5-2.64,3.92-4.58.15-.75,0-1.4-.46-1.95-1.16-1.41-4.06-2.05-6.26-2.05-.15,0-.29,0-.43,0-8.57,0-20.76,4.76-27.06,18.16-6.11,15.17-10.29,33.96-14.32,52.14-3,13.5-6.1,27.46-9.92,39.38l-.48,1.5-1.15-1.07c-4.79-4.46-10.56-6.82-16.69-6.82-7.1,0-14.11,3.16-19.25,8.67-5.31,5.69-7.94,13.13-7.4,20.95.43,18.09,14.18,26.31,26.79,26.31,10.16,0,19.51-4.83,25.66-13.25l.52-.71.77.42c7.43,4.05,15.88,6.19,24.46,6.19,18.09,0,35.35-9.39,45.05-24.51,6.91-10.27,10.9-22.84,10.97-34.5Z"/>
    </symbol>
  </defs>
  <use width="144.99" height="185.98" transform="translate(16.15 15.05)" xlink:href="#Stencil"/>
</svg>