<?xml version="1.0" encoding="UTF-8"?>
<svg id="Layer_22" data-name="Layer 22" xmlns="http://www.w3.org/2000/svg" viewBox="0 0 3756.31 1512">
  <defs>
    <style>
      .cls-1 {
        letter-spacing: 0em;
      }

      .cls-2 {
        font-family: BebasNeue, 'Bebas Neue';
        font-size: 272.69px;
      }

      .cls-2, .cls-3 {
        fill: #fff;
      }

      .cls-4 {
        letter-spacing: -.01em;
      }

      .cls-5 {
        fill: #843127;
        stroke: #fff;
        stroke-miterlimit: 10;
        stroke-width: 14.77px;
      }

      .cls-3 {
        font-family: Inter-Regular, Inter;
        font-size: 66.86px;
        font-variation-settings: 'wght' 400, 'slnt' 0;
      }
    </style>
  </defs>
  <rect width="3756.31" height="1512"/>
  <g>
    <text class="cls-2" transform="translate(189.54 1386.94)"><tspan x="0" y="0">Baseball &amp; Softball Training </tspan><tspan class="cls-4" x="2680.47" y="0">F</tspan><tspan class="cls-1" x="2770.73" y="0">a</tspan><tspan x="2881.44" y="0">cility</tspan></text>
    <g>
      <path class="cls-5" d="M3348.97,576.95c-5.08-16.5-17.28-31.3-30.37-36.82-7.18-3.03-14.49-4.57-21.72-4.57-26.97,0-48.25,20.61-67.02,38.8-13.39,12.97-26.04,25.23-36.31,25.23-1.94,0-3.79-.44-5.66-1.34-4.39-2.12-8.44-9.4-11.12-19.98-6.23-24.57-3.28-57.12,3.5-66.53,7.31-10.14,15-19.82,22.44-29.18,11.37-14.31,23.13-29.11,33.63-45.7,47.7-75.4,75.47-147.83,84.88-221.44,3.33-26.06,2.46-49.06-2.61-68.35-6.37-24.29-25.32-39.37-49.45-39.37-6.98,0-14.09,1.3-21.12,3.88-63.97,23.41-92.51,123.46-109.57,183.23l-1.14,3.98c-23.15,80.98-38.29,160.97-47.62,251.59-17.89,28.95-60.59,67.98-96.5,67.98-8.59,0-16.48-2.25-23.47-6.68-8.63-5.48-15.21-17.16-17.32-30.19,36.52-9.17,70.55-28.46,96.43-54.77,30.11-30.61,46.25-67.43,46.65-106.48.2-18.76-5.88-34.92-17.58-46.74-11.88-12.01-28.36-18.35-47.65-18.35-1.09,0-2.19.02-3.3.06-38.98,1.46-74.73,19.82-103.38,53.07-41.58,48.26-64.81,124.59-58.18,190.67-7.92,13.73-29.79,31.48-42.63,31.48-1.68,0-3.04-.31-4.16-.95-12.48-7.12-9.87-51.46-2.52-80.12,10.87-42.32,29.83-83.18,61.47-132.49l2.15-3.36-1.63-3.64c-4.83-10.83-15.48-21.61-27.11-27.46l-4.39-2.2-3.73,3.19c-23.63,20.21-46.42,33.27-67.73,38.81-.42.1-1.92.28-3.78.35.11-.52.22-1.05.33-1.58,3.86-18.18,10.31-48.61-18.68-65.55-6.83-3.99-14.81-6.1-23.05-6.1-14.83,0-29.11,6.57-39.17,18.02-16.24,18.49-22.82,40.37-19.55,65.03,2.18,16.45,12.71,32.14,30.53,45.61-4.81,18.63-19.81,60.44-38.77,99.61-34.77,71.81-54.48,77.39-59.69,77.39-1.06,0-2.05-.19-3.03-.57-1.56-1.54-3.87-6.98-3.81-9.05,1.9-63.29,22.15-126.11,60.19-186.7,3.51-5.6,14.2-22.63,3.16-38.58-4.68-6.76-15.93-16.27-26.31-16.27-1.53,0-3.01.21-4.39.61l-1.69.5-1.28,1.21c-16.93,15.9-37.51,32.13-63.67,35.51,6.94-25.77,10.68-53.11-21.54-70.54-6.96-3.77-14.99-5.76-23.21-5.76-16.57,0-32.01,8.04-41.29,21.51-23.63,34.28-17.06,80.1,14.47,106.59-12.59,44.07-42.82,146.17-83.84,176.98-.58.23-2.33.65-4.65.65-.76,0-1.38-.05-1.85-.11-3.91-10.7.53-43.28,11.43-82.9l41.54-151.09,1.7-6.18-5.88-2.55c-7.65-3.32-16.81-5.07-26.49-5.07-20.46,0-44.33,7.94-56.84,25.41-11.03-9.29-24.63-14.15-39.84-14.15-36.07,0-76.37,27.28-97.53,54.23-44.2,56.3-73.8,159.05-46.83,233.55,10.21,28.19,34.04,45.7,62.21,45.7,8.98,0,18.09-1.76,27.07-5.23,22.61-8.73,39.43-25.32,55.2-43.98,9.88,20.44,27.72,32.29,49.58,32.29,6.46,0,13.19-1.05,20-3.11,47.69-14.47,86.17-66.16,114.4-153.65l26.97-83.6,10.25.75c-.97,2.59-1.95,5.23-2.95,7.9-18.95,50.65-42.54,113.68-32.34,162.87,6.13,29.56,30.32,49.41,60.2,49.41,4.88,0,9.86-.53,14.8-1.58,27.97-5.94,53.3-22.9,73.26-49.05,26.55-34.79,48.55-76.92,65.39-125.21l23-65.94,16.46-2.34c-29.51,55.63-63.45,170.6-16.02,207.57,11.34,8.83,24.5,13.31,39.11,13.31,36.44,0,73.62-27.76,96-56.31,19.99,27.27,48.87,42.15,82.36,42.15,8.19,0,16.61-.92,25.04-2.74,51.45-11.09,85.59-46.38,102-63.33.92-.95,1.88-1.94,2.8-2.88,8.07,16.28,24.64,48.64,61.96,48.64,6.08,0,12.5-.9,19.09-2.66,28.5-7.64,53.34-23.63,73.81-47.54,1.08-1.27,2.33-2.77,3.71-4.43,7.53-9.08,25.15-30.34,35.72-30.34,1.45,0,2.63.47,3.82,1.53,1.99,1.76,5.47,9.5,5.13,13.15-7.79,83.82-111.85,110.5-173.19,118.95-82.51,11.36-160.63,16.48-254.18,22l-323.94,19.1-305.46,19.07-587.55,15.94h-.33c-.41,0-.8.03-1.19.08l-301.08,26.52c-115.31,10.16-213.3,24-308.4,43.57-76.89,15.82-149.49,41.55-221.94,78.65-25.51,13.06-56.92,31.11-73.48,54.92-4.25,6.11-10.75,17.35-6.53,24.06,4.03,6.41,13.09,8.69,20.23,8.69h.74c1.67-.05,3.37-.07,5.06-.07,84.55,0,184.79,47.62,223.96,68.09l4.37,2.29,3.78-3.16c80.57-67.36,199.61-115.34,363.92-146.69,106.67-20.35,216.48-34.22,356.06-44.97,83.43-4.44,194.98-9.88,284.61-14.25,81.49-3.97,145.85-7.11,168.33-8.46l685.03-41.07c79.75-4.78,158.45-13.13,247.67-26.27,60.28-8.88,117.3-29.77,160.55-58.84,29.12-19.57,54.72-48.73,70.24-80.02,17.8-35.87,21.9-72.09,11.85-104.72ZM3268.4,174.04c21.05,56.25-46.36,208.39-85.16,253.35,3.42-40.95,47.13-240.81,85.16-253.35ZM2268.22,694.61c-34.11-11.02-16.79-142.03,39.73-190.77,4.66-4.02,18.07-7.58,23.44-5.71,37.41,12.99-7.97,214.32-63.17,196.48ZM2982.58,440.04c9.43-13.36,34.33-32.65,48.89-21.65,3.2,2.42,6.13,11.53,5.64,16.22-5.13,48.49-47.3,83.47-90.65,102.83,1.89-36.73,15.45-68.11,36.13-97.4Z"/>
      <path class="cls-5" d="M2202.54,377.37c7.33-49.85-7.93-95.78-42.96-129.33-41.61-39.85-93.68-60.06-154.75-60.06-35.8,0-73.71,7.04-112.67,20.92-59.14,21.08-105.23,56.87-136.97,106.4-29.93,46.71-40.67,104.78-28.71,155.35,9.78,41.36,33.92,74.5,69.82,95.86l4.24,2.52,3.95-2.94c23.82-17.75,40.93-35.09,53.84-54.57l4.13-6.23-6.29-4.05c-36.15-23.3-52.16-57.05-45.08-95.03,16.81-90.2,107.24-137.4,187.88-137.4,15.54,0,30.57,1.76,44.69,5.23,33.89,8.32,58.48,30.43,65.79,59.13,13.31,52.29-11.26,108.96-59.75,137.82-10.06,5.99-20.04,6.22-32.67,6.53-11.49.27-25.27.6-42.4,5.46,8.66-43.56,17.44-80.74,30.25-116.95,9.18-25.92,22.7-36.15,33.57-44.36,7.57-5.72,14.11-10.66,15.98-19.14.82-3.69-.08-7.4-2.52-10.45-6.14-7.65-19.94-8.79-27.62-8.79-32.57,0-79.12,18.15-103.13,69.27-9.37,19.95-16.72,41.82-23.83,70.92l-31.17,131.45-3.47,14.68c-9.73,41.18-18.96,80.27-31.18,121.2-20.37-17.35-43.07-26.45-66.27-26.45-18.27,0-36.06,5.58-52.87,16.58-30.56,19.99-48.17,56.25-47.11,96.99.86,33.07,14.73,61.58,39.06,80.28,18.31,14.07,39.76,21.51,62.03,21.51,36.08,0,72.75-19.19,99.22-51.64,29.15,15.35,61.32,23.43,93.44,23.43,67.1,0,129.94-34.52,168.08-92.34,26.37-39.97,41.41-87.84,41.28-131.35-.15-47.87-17.96-87.58-51.65-115.51,47.6-33.8,77.93-81.36,85.81-134.94ZM2021.71,742.78c-19.22,13.94-41.53,21.31-64.53,21.31-18.98,0-37.23-5.13-53.1-14.88l52.19-190.38c10.18,4,20.88,5.96,32.45,5.96,16.53,0,32.51-3.87,49.42-7.98.44-.05.88-.08,1.32-.08,11.32,0,22.59,18.29,30.05,30.39l.2.32c17.75,59.28-1.47,121.61-47.99,155.36ZM1786.27,786.67c-6.27,4.37-13.29,6.68-20.27,6.68-5.18,0-10.08-1.28-14.57-3.8-7.06-3.97-11.69-13.98-11.59-20.84.12-8.21,5.29-19.06,13.43-22.28,4.47-1.77,9.61-2.7,14.86-2.7,13.77,0,25.31,5.97,30.89,15.96,5.94,10.65-7.55,23.37-12.74,26.98Z"/>
      <path class="cls-5" d="M1683.26,619.89c-20.1-3.22-34.02-6.87-45.87-15.67.57-.81,1.18-1.65,1.8-2.53,18.95-26.61,37.09-54.22,32.89-73.58-1.35-6.24-5.01-11.25-10.58-14.47-6.16-3.57-16.06-5.97-24.62-5.97-4.1,0-7.58.57-10.34,1.68l-3.1,1.26-1.1,3.16c-6.96,20-13.16,34.64-23.88,50.1-10.26-11.27-19.24-23.41-28.2-38.1,2.08-1.68,4.15-3.34,6.19-4.97,16.87-13.52,32.81-26.28,44.9-44.78,18.04-27.61,20.9-69.92-9.33-93.94-10.82-8.6-23.74-12.96-38.4-12.96-11.1,0-23.05,2.52-35.51,7.48-17.83,7.1-31.72,21.55-40.17,41.78-11.29,27.07-11.5,62.38-.83,91.61-39.48,29.81-56.28,74.58-43.91,118.1,8.77,30.88,36.38,50.83,70.32,50.83,2.71,0,5.48-.13,8.21-.39,21.97-2.1,41.57-12.81,60.54-23.17,1.85-1.01,3.7-2.02,5.55-3.02,3.09,1.51,6.37,3.33,9.79,5.22,11.08,6.14,23.63,13.1,36.45,13.1,1.43,0,2.86-.09,4.24-.26,21.58-2.71,36.11-22.72,40.94-41.34l2.04-7.86-8.02-1.29ZM1557.29,429.95c1.78-2.44,9.34-5.84,14.33-5.84.17,0,.32,0,.44.01,1.85,1.42,4.94,8.49,4.3,13.33-1.89,14.23-9.88,26.03-24.95,36.66-3.65-13.53-4.4-30.08,5.88-44.17ZM1556.16,611.23c-5.14,5.18-14.52,8.96-23.26,8.96-5.03,0-11.91-1.21-16.17-6.99-11.16-15.16-1.16-34.77,6.19-45.57,10.25,14.73,20.44,28.09,33.23,43.6Z"/>
      <path class="cls-5" d="M1482.48,368.34l-1.65-10.74-9.38,5.48c-44.46,26-64.67,29.2-118.88,31.73l20.53-85.33,3.78-15.7-14.34,7.41c-19.72,10.18-35.57,16.49-53.63,16.49-3.54,0-7.1-.23-10.89-.69l-6.47-.8-1.59,6.32-19.27,76.39-87.18,2.71c-48.92,1.52-127.24,24.14-129.13,78.36l-.34,9.69,9.43-2.25,45.62-10.9c39.26-9.38,79.34-9.47,121.78-9.58,6.84-.02,13.83-.03,20.85-.09-18.41,69.18-34.5,137.06-50.44,212.73-6.89,32.7-39.01,66.51-48.45,67.46-7.04-9.88-2.7-57.9,3.85-82.66l40.44-152.86,1.63-6.17-5.87-2.51c-7.52-3.21-17.13-4.98-27.07-4.98-18.24,0-40.72,6.15-53.79,22.78-11.68-8.87-25.35-13.36-40.76-13.36-38.96,0-79.17,29.31-100.05,56.55-46.64,60.85-66.13,143.21-52.15,220.32,6.46,35.64,33.82,58.66,69.69,58.66,7.5,0,15.12-1.06,22.64-3.15,26.02-7.22,42.69-24.66,59.21-43.95,16.46,21.82,36.68,26.69,51.46,26.69,11.71,0,23.76-3.03,35.81-8.99,21.57-10.68,36.15-28.71,51.58-47.79.33-.41.67-.82,1-1.24,11.14,22.72,31.15,35.49,56.44,35.49,3.37,0,6.86-.23,10.37-.69,73.99-9.68,121.96-105.01,138.63-159.82l.86-2.83-1.33-2.64c-5.88-11.7-18.67-20.83-28.07-24.35l-6.33-2.38-2.92,6.1c-1.88,3.92-3.71,7.76-5.51,11.55-11.66,24.51-21.73,45.68-36.04,67.87-7.51,11.65-25.56,27.9-37.89,27.9-2.01,0-3.72-.46-5.22-1.41-11.39-7.23-7.92-57.94-1.71-82.65l44.04-175.25,57.27-6.28c24.97-2.74,58.33-14.37,77.08-38.79,10.73-13.98,15-30.53,12.34-47.86ZM1083.08,634.69c-5.91,35.71-17.64,72.87-18.96,76.99-6.52,20.37-27.13,51.18-43.36,51.18-1.44,0-2.8-.24-4.16-.75-3.3-1.22-9.94-8.98-10.92-14.78-9.89-58.57,13.35-123.98,40.25-155.8,9.88-11.69,20.06-18.4,27.92-18.4,1.83,0,3.51.34,5.15,1.05,6.36,2.75,10.77,20.09,4.08,60.5Z"/>
      <path class="cls-5" d="M948.87,442.86c5.39-59.91-18.82-112.59-66.43-144.52-38.77-26.01-86.37-39.76-137.64-39.76-70.41,0-143.58,26.33-195.73,70.43-52.76,44.62-83.69,102.73-87.08,163.64-3.44,61.89,23.37,113.49,73.57,141.56l3.82,2.14,3.71-2.33c22.48-14.12,40.81-31.24,54.49-50.89l3.62-5.21-4.6-4.37c-3.58-3.4-7.15-6.61-10.61-9.72-13.59-12.24-25.33-22.81-30.59-37.95-13.46-38.81-3.05-81.34,28.56-116.67,37.66-42.09,100.26-69.29,159.49-69.28,44.05,0,79.42,15.17,99.58,42.71,19.59,26.75,21,65.47,3.79,103.56-15.28,33.8-41.84,57.99-66.1,60.18-6.01.54-11.82.99-17.56,1.43-14.88,1.14-29.08,2.23-44.9,4.79,8.88-43.36,19.11-80.69,31.18-113.87,8.56-23.53,32.36-44.72,50.14-55.72l.09-.05.09-.06c3.99-2.63,5.8-6.77,4.83-11.07-2.03-9.03-15.98-13.94-22.03-14.8-5.92-.84-11.85-1.26-17.62-1.26-47.13,0-85.14,27.41-101.68,73.32-20.38,56.56-34.79,113.69-48.97,172.11l-37.72,155.43c-19.51-13.66-38.4-25.92-62.83-25.92-.5,0-1,0-1.51.02-26.96.55-51.98,12.19-70.45,32.79-17.53,19.55-27.88,45.41-29.14,72.81-1.49,32.32,10.08,62.36,31.75,82.42,18.21,16.86,41.43,25.77,67.16,25.77,38.43,0,76.15-20.3,100.1-53.43,27.15,16.72,58.58,25.52,91.38,25.52,75.56,0,150.07-45.5,185.4-113.22,17.78-34.08,26.75-77.64,23.99-116.51-2.22-31.25-12.88-73.21-49.89-102.13,50.38-31.7,80.9-81.66,86.31-141.88ZM780.86,800.02c-22.05,21.32-49.87,33.06-78.34,33.06-19.35,0-38.18-5.52-54.77-16.02l32.75-116.12,19.44-72.71c11.06,4.68,22.67,6.89,35.88,6.89,12.15,0,24.07-1.83,36.69-3.76,4.11-.63,8.28-1.27,12.52-1.85.37-.05.73-.08,1.12-.08,10.26,0,25.35,17.94,29.56,31.84,15.17,50.13,1.81,103.3-34.85,138.75ZM513.3,858.89c-4.79,0-8.98-.93-12.1-2.68-9.51-5.33-15.57-14.96-15.82-25.14-.2-8.06,5.86-18.74,16.02-21.94,3.76-1.18,7.8-1.78,12.02-1.78,11.83,0,26.97,5.13,33.97,19.52,3.23,6.63-6.34,19.64-14.18,26.09-4.31,3.54-12.31,5.92-19.9,5.92Z"/>
    </g>
    <text class="cls-3" transform="translate(2685.32 943.47)"><tspan x="0" y="0">Upland, est. 2026</tspan></text>
  </g>
</svg>